static pose
version=1
nRows=1
nColumns=38
inDegrees=yes
endheader
time	pelvis_tilt	pelvis_list	pelvis_rotation	pelvis_tx	pelvis_ty	pelvis_tz	hip_flexion_r	hip_adduction_r	hip_rotation_r	knee_angle_r	ankle_angle_r	subtalar_angle_r	mtp_angle_r	hip_flexion_l	hip_adduction_l	hip_rotation_l	knee_angle_l	ankle_angle_l	subtalar_angle_l	mtp_angle_l	lumbar_extension	lumbar_bending	lumbar_rotation	arm_flex_r	arm_add_r	arm_rot_r	elbow_flex_r	pro_sup_r	wrist_flex_r	wrist_dev_r	arm_flex_l	arm_add_l	arm_rot_l	elbow_flex_l	pro_sup_l	wrist_flex_l	wrist_dev_l
      0.00000000	     -5.86671414	     -0.06599998	      1.99591898	      0.06885380	      0.89076740	      0.04088319	      5.77087147	     -5.43027916	     -8.87787663	     -7.70725810	      7.31839419	      0.00000000	      0.00000000	      7.52748225	     -4.84806736	    -13.04443537	     -6.74924495	      6.15359973	      0.00000000	      0.00000000	      3.11138110	     -2.24283750	      0.36065026	     -4.65414908	    -16.35267099	     23.90366881	     36.65449659	    117.41757532	      0.00000000	      0.00000000	     -0.31526652	    -16.23440834	     29.57011653	     30.97630332	    117.89331517	      0.00000000	      0.00000000
